<?xml version="1.0" encoding="UTF-8" standalone="no"?>
<!-- Created with Inkscape (http://www.inkscape.org/) -->

<svg
   xmlns:dc="http://purl.org/dc/elements/1.1/"
   xmlns:cc="http://creativecommons.org/ns#"
   xmlns:rdf="http://www.w3.org/1999/02/22-rdf-syntax-ns#"
   xmlns:svg="http://www.w3.org/2000/svg"
   xmlns="http://www.w3.org/2000/svg"
   xmlns:sodipodi="http://sodipodi.sourceforge.net/DTD/sodipodi-0.dtd"
   xmlns:inkscape="http://www.inkscape.org/namespaces/inkscape"
   width="500"
   height="200"
   id="svg3827"
   version="1.1"
   inkscape:version="0.48.2 r9819"
   sodipodi:docname="sprite.svg"
   inkscape:export-filename="/Users/tmcw/src/osm-data-report/css/sprite.png"
   inkscape:export-xdpi="90"
   inkscape:export-ydpi="90">
  <defs
     id="defs3829" />
  <sodipodi:namedview
     id="base"
     pagecolor="#ffffff"
     bordercolor="#666666"
     borderopacity="1.0"
     inkscape:pageopacity="0.0"
     inkscape:pageshadow="2"
     inkscape:zoom="5.9604645"
     inkscape:cx="96.205457"
     inkscape:cy="189.85706"
     inkscape:document-units="px"
     inkscape:current-layer="g8629"
     showgrid="true">
    <inkscape:grid
       type="xygrid"
       id="grid3859"
       empspacing="5"
       visible="true"
       enabled="true"
       snapvisiblegridlinesonly="true" />
  </sodipodi:namedview>
  <metadata
     id="metadata3832">
    <rdf:RDF>
      <cc:Work
         rdf:about="">
        <dc:format>image/svg+xml</dc:format>
        <dc:type
           rdf:resource="http://purl.org/dc/dcmitype/StillImage" />
        <dc:title></dc:title>
      </cc:Work>
    </rdf:RDF>
  </metadata>
  <g
     inkscape:label="Layer 1"
     inkscape:groupmode="layer"
     id="layer1"
     transform="translate(0,-852.36218)">
    <g
       style="display:inline"
       id="g8629"
       transform="translate(-935,613.3622)">
      <rect
         y="238.99998"
         x="935"
         height="50"
         width="50"
         id="rect8627"
         style="opacity:0.15;color:#000000;fill:none;stroke:none;stroke-width:1;marker:none;visibility:visible;display:inline;overflow:visible;enable-background:accumulate" />
      <path
         inkscape:connector-curvature="0"
         d="m 985,250.99998 c -1.8395,0.8033 -3.92525,1.75607 -6,2 2.11755,-1.24969 4.234,-3.64167 5,-6 -1.98225,1.15758 -3.6633,1.54744 -6,2 -1.8709,-1.96246 -5.43247,-4.50042 -8.38312,-4.50042 -5.6651,0 -10.25839,4.52142 -10.25839,10.0982 0,0.79162 0.09,1.56238 0.26608,2.30151 -8.52554,-0.4212 -16.08434,-4.44163 -21.14373,-10.55128 -0.88291,1.49139 -1.38898,3.22619 -1.38898,5.07698 0,3.50358 1.81092,6.59435 4.56344,8.40539 -1.68152,-0.0538 -4.27232,-0.0741 -5.6553,-0.83038 0,1 0,0.958 0,1 0,4.89262 4.54404,7.6676 9.23689,8.59542 -0.86078,0.23068 -1.76708,0.35428 -2.70258,0.35428 -0.66101,0 -1.90809,0.16837 -2.53431,0.0503 1,5 5.69797,6.7002 10.18691,6.78142 -3.51079,2.70881 -7.93375,4.32315 -12.74017,4.32315 -0.82796,0 -1.64451,-0.0473 -2.44688,-0.14145 4.53966,2.86522 9.93174,4.53729 15.72486,4.53729 18.86851,0 29.27528,-13.15556 29.27528,-26.50041 0,-0.43786 0.013,-1.56699 0,-2 2.00475,-1.42394 3.6246,-2.97482 5,-5"
         style="color:#000000;fill:#555555;fill-opacity:1;fill-rule:nonzero;stroke:none;stroke-width:1;marker:none;visibility:visible;display:inline;overflow:visible;enable-background:accumulate"
         id="path5047-4-7"
         inkscape:export-filename="/Users/saman/Dropbox/mapbox-redesign/mockup.png"
         inkscape:export-xdpi="90"
         inkscape:export-ydpi="90"
         sodipodi:nodetypes="ccccssccsccscsccscsscc" />
      <path
         inkscape:connector-curvature="0"
         id="path6649"
         d="m 1068.7464,238.99996 c -1.9873,0 -3.9438,0.78489 -5.4663,2.30694 l -6.1955,6.19226 c 2.723,0 5.1825,0.98635 7.1673,2.54978 l 1.7007,-1.69984 c 0.761,-0.76104 1.8,-1.21419 2.7938,-1.21419 0.9935,0 2.0325,0.45315 2.794,1.21419 l 4.1302,4.12819 c 1.5225,1.52202 1.5225,4.06312 0,5.58517 l -4.1302,4.1282 -5.8308,5.82803 c -1.523,1.52205 -4.0652,1.52205 -5.588,0 l -4.13,-4.1282 c -0.2995,-0.29995 -0.4257,-0.72928 -0.6077,-1.09275 l -5.102,5.09952 7.1672,7.16362 c 3.0453,3.04405 7.8873,3.04405 10.933,0 l 14.334,-14.32724 c 3.0453,-3.04405 3.0453,-7.88348 0,-10.92755 l -8.5032,-8.49919 c -1.523,-1.52205 -3.479,-2.30692 -5.4665,-2.30692 z m -11.6618,11.65605 c -1.9872,0 -3.9435,0.78488 -5.4662,2.30693 l -14.334,14.32725 c -3.0458,3.04405 -3.0458,7.88347 0,10.92752 l 8.5032,8.49922 c 3.0453,3.04404 7.887,3.04404 10.9328,0 l 6.195,-6.19227 c -2.723,0 -5.1825,-0.98635 -7.1668,-2.54978 l -1.7007,1.69985 c -1.523,1.52205 -4.0653,1.52205 -5.5878,0 l -4.1302,-4.1282 c -1.523,-1.52205 -1.523,-4.06312 0,-5.58517 l 4.1302,-4.1282 5.8308,-5.82802 c 0.761,-0.76103 1.8002,-1.21418 2.7937,-1.21418 0.9935,0 2.0325,0.45315 2.794,1.21418 l 4.1303,4.1282 c 0.2992,0.29995 0.4252,0.72927 0.6072,1.09275 l 5.102,-5.09953 -7.167,-7.16362 c -1.523,-1.52205 -3.479,-2.30693 -5.4665,-2.30693 z"
         style="color:#000000;fill:#ffffff;fill-opacity:1;fill-rule:nonzero;stroke:none;stroke-width:1;marker:none;visibility:visible;display:inline;overflow:visible;enable-background:accumulate" />
    </g>
    <path
       style="color:#000000;fill:#555555;fill-opacity:1;fill-rule:nonzero;stroke:none;stroke-width:1;marker:none;visibility:visible;display:inline;overflow:visible;enable-background:accumulate"
       d="m 55.000033,854.86217 c -1.385,0 -2.5,1.115 -2.5,2.5 l 0,37.5 c 0,1.385 1.115,2.5 2.5,2.5 l 19.999998,0 0.109375,-20 -5.109374,0 0,-5 4.999999,0 0,-1.5 c 0,-1.82822 0.17535,-3.11147 0.5,-4 0.44424,-1.19602 1.389375,-2.26525 2.5,-3 1.1277,-0.75177 2.48379,-1.49996 4.5,-1.5 2.5,0 4.194694,0.87241 5.459759,2.03147 l -1.66772,3.57251 c -0.956855,-0.17083 -2.437729,-0.60395 -3.292039,-0.60398 -1.4011,3e-5 -1.78946,0.016 -2.37039,0.61398 -0.580945,0.59806 -0.62961,0.74575 -0.62961,2.38602 l 0,2 6.499999,0 0,5 -6.499999,0 0,20 9.999999,0 c 1.385,0 2.5,-1.115 2.5,-2.5 l 0,-37.5 c 0,-1.385 -1.115,-2.5 -2.5,-2.5 z"
       id="rect3843"
       inkscape:connector-curvature="0"
       sodipodi:nodetypes="sssscccccscccccccscccccsssss" />
  </g>
</svg>
